HIERARCHY
ROOT SpineBase
{
  OFFSET 0.000000 0.000000 0.000000
  CHANNELS 6 Xposition Yposition Zposition Zrotation Xrotation Yrotation
  JOINT SpineMid
  {
    OFFSET 0.000000 33.240069 0.000000
    CHANNELS 3 Zrotation Xrotation Yrotation
    JOINT SpineShoulder
    {
      OFFSET 0.056232 24.606722 -0.788034
      CHANNELS 3 Zrotation Xrotation Yrotation
      JOINT Neck
      {
        OFFSET 0.017789 8.110760 -0.603682
        CHANNELS 3 Zrotation Xrotation Yrotation
        JOINT Head
        {
          OFFSET 5.546370 12.313718 4.155953
          CHANNELS 3 Zrotation Xrotation Yrotation
          End Site
          {
            OFFSET 0 0 0
          }
        }
      }
      JOINT ShoulderLeft
      {
        OFFSET -10.083129 -3.467472 -12.360028
        CHANNELS 3 Zrotation Xrotation Yrotation
        JOINT ElbowLeft
        {
          OFFSET -7.171973 -25.440405 -5.363932
          CHANNELS 3 Zrotation Xrotation Yrotation
          JOINT WristLeft
          {
            OFFSET 1.336170 -22.129311 -3.960991
            CHANNELS 3 Zrotation Xrotation Yrotation
            JOINT HandLeft
            {
              OFFSET 0.575299 -1.984003 1.060053
              CHANNELS 3 Zrotation Xrotation Yrotation
              JOINT HandTipLeft
              {
                OFFSET -0.049333 -5.468561 -1.691639
                CHANNELS 3 Zrotation Xrotation Yrotation
                End Site
                {
                  OFFSET 0 0 0
                }
              }
              JOINT ThumbLeft
              {
                OFFSET 5.248502 2.715230 5.593548
                CHANNELS 3 Zrotation Xrotation Yrotation
                End Site
                {
                  OFFSET 0 0 0
                }
              }
            }
          }
        }
      }
      JOINT ShoulderRight
      {
        OFFSET 12.183216 -8.491955 10.105404
        CHANNELS 3 Zrotation Xrotation Yrotation
        JOINT ElbowRight
        {
          OFFSET 3.817681 -24.633877 7.606911
          CHANNELS 3 Zrotation Xrotation Yrotation
          JOINT WristRight
          {
            OFFSET 1.824264 -26.272547 5.007858
            CHANNELS 3 Zrotation Xrotation Yrotation
            JOINT HandRight
            {
              OFFSET -0.528458 -7.564271 1.293890
              CHANNELS 3 Zrotation Xrotation Yrotation
              JOINT HandTipRight
              {
                OFFSET -0.381233 -5.318169 -0.039102
                CHANNELS 3 Zrotation Xrotation Yrotation
                End Site
                {
                  OFFSET 0 0 0
                }
              }
              JOINT ThumbRight
              {
                OFFSET -1.877162 0.750603 -1.468169
                CHANNELS 3 Zrotation Xrotation Yrotation
                End Site
                {
                  OFFSET 0 0 0
                }
              }
            }
          }
        }
      }
    }
  }
  JOINT HipLeft
  {
    OFFSET -4.906058 1.231309 -8.478787
    CHANNELS 3 Zrotation Xrotation Yrotation
    JOINT KneeLeft
    {
      OFFSET -11.280042 -28.347286 -17.788402
      CHANNELS 3 Zrotation Xrotation Yrotation
      JOINT AnkleLeft
      {
        OFFSET -9.124659 -40.246537 15.750497
        CHANNELS 3 Zrotation Xrotation Yrotation
        JOINT FootLeft
        {
          OFFSET -2.975511 -8.319416 -6.607138
          CHANNELS 3 Zrotation Xrotation Yrotation
          End Site
          {
            OFFSET 0 0 0
          }
        }
      }
    }
  }
  JOINT HipRight
  {
    OFFSET 5.513064 0.041806 1.119371
    CHANNELS 3 Zrotation Xrotation Yrotation
    JOINT KneeRight
    {
      OFFSET 0.978576 -32.294998 6.653633
      CHANNELS 3 Zrotation Xrotation Yrotation
      JOINT AnkleRight
      {
        OFFSET -9.870778 -39.264356 6.737980
        CHANNELS 3 Zrotation Xrotation Yrotation
        JOINT FootRight
        {
          OFFSET 2.062963 -8.130211 -5.639448
          CHANNELS 3 Zrotation Xrotation Yrotation
          End Site
          {
            OFFSET 0 0 0
          }
        }
      }
    }
  }
}
MOTION
Frames: 12
Frame Time: 0.033333
-38.678139 72.266469 344.454268 -10.934333 -9.466607 -55.697641 0.210688 1.504679 54.456171 -1.085292 -2.951822 -0.663782 -22.330760 23.429425 13.475445 0.000000 0.000000 0.000000 32.967533 15.189168 -11.788743 0.691008 0.301300 2.436942 -16.860506 13.335667 11.673997 22.244393 -25.988624 -8.450469 0.000000 0.000000 0.000000 0.000000 0.000000 0.000000 -23.258837 64.824604 28.168987 10.452101 24.372353 9.480271 -39.854204 -10.633543 -54.599301 36.788099 14.756757 25.343480 0.000000 0.000000 0.000000 0.000000 0.000000 0.000000 35.846163 2.999804 56.662421 -5.093080 46.859995 -8.772474 5.236522 -9.209109 -4.842508 0.000000 0.000000 0.000000 -86.543032 43.640386 110.264841 -176.181533 -64.797627 -156.450593 45.248155 48.170961 -52.543601 0.000000 0.000000 0.000000
-36.326290 70.765073 341.682897 -8.052282 -7.045689 -57.690859 -0.226788 1.180956 56.986524 -1.326305 -2.629223 -0.516939 -22.644151 17.270079 12.108420 0.000000 0.000000 0.000000 31.399217 11.184983 -10.086250 1.534321 1.656066 1.666749 -22.078606 16.798508 11.728020 23.778687 -36.729590 -3.940390 0.000000 0.000000 0.000000 0.000000 0.000000 0.000000 -28.077115 65.072656 30.474361 11.344355 20.507845 9.891632 -36.387009 -8.184889 -51.672321 43.959430 12.028980 28.302474 0.000000 0.000000 0.000000 0.000000 0.000000 0.000000 37.914295 -3.136533 67.429286 5.764837 50.251194 -18.733965 5.385546 -9.928587 -4.692421 0.000000 0.000000 0.000000 -86.866770 39.073684 106.542490 -178.029999 -62.123063 -159.886752 46.808763 45.131395 -54.504421 0.000000 0.000000 0.000000
-34.258772 69.181792 339.512061 -5.726306 -5.444511 -58.723812 -0.491391 0.832401 58.318108 -1.423507 -2.097725 -0.388805 -22.316134 9.496981 11.454570 0.000000 0.000000 0.000000 30.204873 8.148008 -8.868158 1.779462 2.420322 1.146731 -26.246030 13.869223 9.310124 23.030361 -38.065557 -1.398845 0.000000 0.000000 0.000000 0.000000 0.000000 0.000000 -30.650640 64.443162 30.624950 12.044193 18.960974 10.566971 -32.509452 -5.955469 -48.535764 47.634257 8.289486 31.134980 0.000000 0.000000 0.000000 0.000000 0.000000 0.000000 39.367642 -8.236458 75.983743 16.431943 51.166169 -28.222501 2.184783 -12.323665 -1.815979 0.000000 0.000000 0.000000 -89.036560 35.517900 103.805126 179.657976 -58.901580 -164.128691 47.542172 42.347426 -55.816574 0.000000 0.000000 0.000000
-32.957650 67.945693 338.302434 -4.484862 -4.898070 -58.441011 -0.833864 0.763893 58.161196 -1.348545 -1.279844 -0.296031 -20.043606 0.881060 11.155212 0.000000 0.000000 0.000000 29.498881 6.984779 -8.465669 3.575747 1.959472 1.078486 -31.079206 9.313556 6.480209 21.557057 -35.638975 0.254552 0.000000 0.000000 0.000000 0.000000 0.000000 0.000000 -32.327757 64.580180 31.224248 12.305398 16.830862 10.489512 -31.475855 -5.322478 -47.522788 52.734636 6.984252 33.352994 0.000000 0.000000 0.000000 0.000000 0.000000 0.000000 39.503863 -11.431363 79.932150 22.376620 50.626717 -33.298358 6.279054 -10.727180 -5.128332 0.000000 0.000000 0.000000 -92.317704 34.085753 103.063515 178.383055 -56.108070 -166.866387 47.414791 40.212206 -56.020681 0.000000 0.000000 0.000000
-32.186329 67.115598 337.943867 -3.882795 -4.794457 -58.916932 -0.987519 0.411818 58.679746 -1.110880 -0.352071 -0.232291 -16.486815 -8.285293 11.776550 0.000000 0.000000 0.000000 29.865858 6.979009 -8.791513 3.228775 -0.047411 1.933824 -34.124171 3.538580 2.788416 18.758246 -29.179953 1.988107 0.000000 0.000000 0.000000 0.000000 0.000000 0.000000 -31.852364 64.437292 30.654083 12.128862 15.837742 9.984462 -31.885114 -5.237104 -47.771246 55.593310 8.094450 34.171581 0.000000 0.000000 0.000000 0.000000 0.000000 0.000000 39.184525 -12.848339 82.649609 26.031048 49.804563 -36.219303 9.768699 -9.886403 -7.868250 0.000000 0.000000 0.000000 -94.670782 32.985719 103.422799 178.569629 -54.742268 -167.179940 47.001193 38.621771 -55.520694 0.000000 0.000000 0.000000
-32.299236 66.878320 338.599968 -4.134661 -5.342849 -59.115341 -0.969918 -0.164983 58.835704 -0.715481 0.667797 -0.195899 -11.618107 -15.712018 13.044184 0.000000 0.000000 0.000000 31.148003 8.255933 -9.778902 2.700646 -2.010656 3.031118 -36.907913 -2.990539 -1.297462 14.760571 -17.549637 4.317250 0.000000 0.000000 0.000000 0.000000 0.000000 0.000000 -33.974896 65.030988 32.595008 12.634055 14.015309 10.387163 -34.411712 -7.069585 -49.245154 60.974878 10.957268 33.600940 0.000000 0.000000 0.000000 0.000000 0.000000 0.000000 38.248412 -12.178050 82.015509 25.430833 49.577077 -35.527569 12.361589 -9.262009 -9.888303 0.000000 0.000000 0.000000 -98.928348 31.968114 105.714698 178.095220 -52.556193 -167.943799 45.337375 38.026329 -53.948246 0.000000 0.000000 0.000000
-32.680145 67.168951 339.224810 -4.806872 -5.666225 -59.348830 -1.123554 -0.395177 59.012615 -0.425605 0.959077 -0.206009 -6.668208 -20.760555 14.283632 0.000000 0.000000 0.000000 33.437071 9.179038 -10.860073 1.507324 -3.340867 3.939092 -40.161786 -7.892210 -5.128031 10.867171 -8.332586 8.132559 0.000000 0.000000 0.000000 0.000000 0.000000 0.000000 -33.009922 64.887748 32.318372 12.560032 14.502995 10.395759 -35.449075 -8.027456 -50.198307 60.595798 10.222909 32.717846 0.000000 0.000000 0.000000 0.000000 0.000000 0.000000 37.444471 -10.750645 80.321759 23.193244 49.438331 -33.410567 13.946913 -8.882730 -11.067986 0.000000 0.000000 0.000000 -98.845808 31.224284 105.458460 176.831164 -53.328649 -170.126213 44.017863 37.855798 -52.941857 0.000000 0.000000 0.000000
-32.221020 66.993389 339.301158 -4.772875 -4.914054 -58.109892 -1.015175 -0.238882 57.798537 -0.695363 0.482028 -0.234455 -3.216325 -23.582379 14.937757 0.000000 0.000000 0.000000 33.835877 9.622528 -11.214820 1.387532 -4.702707 4.515640 -40.706702 -7.511940 -5.247525 12.199373 -10.131640 8.357270 0.000000 0.000000 0.000000 0.000000 0.000000 0.000000 -30.556885 63.006605 29.302626 12.497289 17.624226 11.053938 -33.344108 -7.784175 -48.951276 55.914119 5.487403 32.755495 0.000000 0.000000 0.000000 0.000000 0.000000 0.000000 35.782690 -12.103181 79.363655 23.096656 47.600540 -32.531289 14.519809 -8.418816 -11.552241 0.000000 0.000000 0.000000 -96.165142 31.386765 101.938289 174.490223 -54.813580 -174.726379 43.653073 37.844793 -52.757353 0.000000 0.000000 0.000000
-31.808989 67.029114 339.299452 -4.707661 -4.308600 -56.183284 -0.827319 -0.386919 55.885292 -0.636287 0.466791 -0.234372 -5.864349 -20.586175 13.767521 0.000000 0.000000 0.000000 32.654707 8.919028 -10.413408 1.397574 -4.006609 4.075456 -39.124335 -6.787991 -4.674765 12.340276 -9.793992 7.569065 0.000000 0.000000 0.000000 0.000000 0.000000 0.000000 -26.245537 60.877646 25.390820 10.878842 21.215491 9.969983 -31.258621 -7.786429 -47.970777 53.422470 0.384601 32.913884 0.000000 0.000000 0.000000 0.000000 0.000000 0.000000 33.758601 -13.641123 77.556582 22.855995 45.781167 -31.506205 14.032628 -8.316284 -11.168547 0.000000 0.000000 0.000000 -91.607580 32.416765 97.366983 171.502254 -57.578782 -179.874357 43.554761 37.787387 -53.041783 0.000000 0.000000 0.000000
-31.348173 67.572353 339.372220 -4.605998 -3.544868 -52.365269 -0.594598 -0.465643 52.087272 -0.484499 0.448208 -0.226014 -6.641543 -20.549074 13.533954 0.000000 0.000000 0.000000 32.041093 8.674910 -10.175689 1.078076 -4.967982 4.305361 -38.261067 -5.512042 -4.079784 11.405943 -9.771091 7.582384 0.000000 0.000000 0.000000 0.000000 0.000000 0.000000 -21.396502 58.274147 21.288520 9.967975 24.231701 8.974380 -29.562221 -6.039732 -46.856726 45.809596 -6.283386 30.446845 0.000000 0.000000 0.000000 0.000000 0.000000 0.000000 30.987860 -15.798861 73.470829 21.796310 43.780852 -29.699260 12.472605 -8.339425 -9.939743 0.000000 0.000000 0.000000 -84.642535 35.271223 91.222376 167.552462 -61.917506 174.128263 43.753129 38.058703 -53.322062 0.000000 0.000000 0.000000
-30.770834 68.052989 339.606371 -4.298013 -2.924196 -46.636399 -0.582046 -0.383135 46.395067 -0.343815 0.413527 -0.209757 -8.161715 -20.295767 13.210724 0.000000 0.000000 0.000000 31.206524 7.817379 -9.629943 0.672487 -5.016322 4.170498 -38.414705 -2.489043 -3.403820 13.164473 -12.810728 7.347592 0.000000 0.000000 0.000000 0.000000 0.000000 0.000000 -17.066210 56.583444 18.446003 10.036665 25.559179 7.893081 -28.424775 -3.040969 -46.091345 35.268792 -8.932603 25.993180 0.000000 0.000000 0.000000 0.000000 0.000000 0.000000 26.773717 -18.692644 67.476696 21.203440 41.367221 -28.116464 6.449241 -9.825586 -5.165586 0.000000 0.000000 0.000000 -76.348325 39.535747 83.412326 162.460150 -66.718584 167.337976 44.272761 38.355597 -53.656999 0.000000 0.000000 0.000000
-30.243320 68.794152 340.016850 -3.995389 -2.451476 -39.787937 -0.454469 -0.287520 39.575612 -0.221936 0.332524 -0.190705 -10.433600 -19.717289 13.000249 0.000000 0.000000 0.000000 32.466073 5.435185 -9.029001 -3.821922 -3.022651 3.682877 -38.187735 0.043073 -3.982818 10.211671 -21.226267 8.980120 0.000000 0.000000 0.000000 0.000000 0.000000 0.000000 -15.107236 53.141158 15.655016 11.976706 29.224157 9.409325 -28.893332 -2.028298 -46.541624 26.651499 -10.761995 21.073294 0.000000 0.000000 0.000000 0.000000 0.000000 0.000000 22.113339 -21.141035 59.787472 20.353947 39.267882 -26.454343 3.910979 -10.271428 -3.287665 0.000000 0.000000 0.000000 -67.654167 43.483777 73.619514 153.958953 -70.391273 156.753818 44.654665 38.859653 -54.085583 0.000000 0.000000 0.000000
